<?xml version="1.0" encoding="UTF-8" standalone="no"?>
<svg
   viewBox="0 0 268.178 109.589"
   version="1.1"
   id="svg42"
   sodipodi:docname="logo.svg"
   inkscape:version="1.2.2 (732a01da63, 2022-12-09)"
   width="268.17801"
   height="109.589"
   xmlns:inkscape="http://www.inkscape.org/namespaces/inkscape"
   xmlns:sodipodi="http://sodipodi.sourceforge.net/DTD/sodipodi-0.dtd"
   xmlns="http://www.w3.org/2000/svg"
   xmlns:svg="http://www.w3.org/2000/svg">
  <sodipodi:namedview
     id="namedview44"
     pagecolor="#ffffff"
     bordercolor="#000000"
     borderopacity="0.25"
     inkscape:showpageshadow="2"
     inkscape:pageopacity="0.0"
     inkscape:pagecheckerboard="0"
     inkscape:deskcolor="#d1d1d1"
     showgrid="false"
     inkscape:zoom="3.2143873"
     inkscape:cx="87.886112"
     inkscape:cy="114.48527"
     inkscape:window-width="1920"
     inkscape:window-height="1009"
     inkscape:window-x="-8"
     inkscape:window-y="-8"
     inkscape:window-maximized="1"
     inkscape:current-layer="svg42" />
  <defs
     id="defs6">
    <style
       id="style2">
      .cls-1 {
        fill: none;
      }

      .cls-2 {
        fill: #fff;
      }

      .cls-3 {
        clip-path: url(#clip-path);
      }
    </style>
    <clipPath
       id="clip-path">
      <path
         id="Path_18"
         data-name="Path 18"
         class="cls-1"
         d="M 0,-117.589 H 266.178 V 0 H 0 Z" />
    </clipPath>
  </defs>
  <g
     id="Group_17"
     data-name="Group 17"
     transform="matrix(2.545803,0,0,1.6819714,-45.065437,-298.0334)"
     style="stroke-width:0.339543">
    <g
       id="Group_16"
       data-name="Group 16"
       class="cls-3"
       clip-path="url(#clip-path)"
       transform="matrix(0.38574168,0,0,0.52448142,18.693708,239.81625)"
       style="stroke-width:0.339543">
      <g
         id="Group_2"
         data-name="Group 2"
         transform="translate(189.13055,-74.699988)"
         style="stroke-width:0.339543">
        <path
           id="Path_2"
           data-name="Path 2"
           class="cls-2"
           d="m 0,0 a 8.912,8.912 0 0 1 -6.572,-2.723 8.944,8.944 0 0 1 -2.7,-6.531 V -30.5 a 8.921,8.921 0 0 1 2.723,-6.562 8.946,8.946 0 0 1 6.549,-2.717 8.875,8.875 0 0 1 6.562,2.723 8.987,8.987 0 0 1 2.692,6.556 v 4.424 H 3.191 v -4.531 A 3.264,3.264 0 0 0 2.2,-33 3.26,3.26 0 0 0 -0.193,-33.989 3.2,3.2 0 0 0 -2.552,-33 3.281,3.281 0 0 0 -3.53,-30.607 v 21.29 a 3.242,3.242 0 0 0 0.978,2.382 3.22,3.22 0 0 0 2.361,0.978 3.278,3.278 0 0 0 2.391,-0.978 3.225,3.225 0 0 0 0.989,-2.382 v -7.637 H -0.063 V -22.8 H 9.254 V -9.25 A 8.877,8.877 0 0 1 6.531,-2.691 8.956,8.956 0 0 1 0,0"
           style="stroke-width:0.339543" />
      </g>
      <g
         id="Group_2-4"
         data-name="Group 2"
         transform="matrix(0.69777431,0,0,0.68557586,66.415259,-0.53089474)"
         style="stroke-width:0.339543">
        <path
           id="Path_2-4"
           data-name="Path 2"
           class="cls-2"
           d="m 0,0 a 8.912,8.912 0 0 1 -6.572,-2.723 8.944,8.944 0 0 1 -2.7,-6.531 V -30.5 a 8.921,8.921 0 0 1 2.723,-6.562 8.946,8.946 0 0 1 6.549,-2.717 8.875,8.875 0 0 1 6.562,2.723 8.987,8.987 0 0 1 2.692,6.556 v 4.424 H 3.191 v -4.531 A 3.264,3.264 0 0 0 2.2,-33 3.26,3.26 0 0 0 -0.193,-33.989 3.2,3.2 0 0 0 -2.552,-33 3.281,3.281 0 0 0 -3.53,-30.607 v 21.29 a 3.242,3.242 0 0 0 0.978,2.382 3.22,3.22 0 0 0 2.361,0.978 3.278,3.278 0 0 0 2.391,-0.978 3.225,3.225 0 0 0 0.989,-2.382 v -7.637 H -0.063 V -22.8 H 9.254 V -9.25 A 8.877,8.877 0 0 1 6.531,-2.691 8.956,8.956 0 0 1 0,0"
           style="fill:#ffffff;stroke-width:0.339543" />
      </g>
      <g
         id="Group_3"
         data-name="Group 3"
         transform="translate(47.199494,-77.989899)"
         style="stroke-width:0.339543">
        <path
           id="Path_3"
           data-name="Path 3"
           class="cls-2"
           d="M -28.377656,1.7598546 V -37.040145 h 16.656 v 5.849 h -10.806 v 10.637 h 7.892 v 5.849 h -7.892 v 10.6159996 h 10.806 v 5.849 z"
           style="stroke-width:0.339543" />
      </g>
      <g
         id="Group_5"
         data-name="Group 5"
         transform="translate(88.772353,-74.860117)"
         style="stroke-width:0.339543">
        <path
           id="Path_5"
           data-name="Path 5"
           class="cls-2"
           d="m 0,0 c -2.4698705,0.04645126 -4.8489452,-0.93080443 -6.573,-2.7 -1.7661495,-1.7174539 -2.7433779,-4.0888617 -2.7,-6.552 V -30.5 c -0.040411,-2.469877 0.9452029,-4.845924 2.722,-6.562 1.7162241,-1.769322 4.0863137,-2.752307 6.551,-2.717 2.4710651,-0.04561 4.8492286,0.941243 6.562,2.723 1.7572402,1.724414 2.7299918,4.094298 2.691,6.556 v 16.193028 L 3.19,-13.207063 V -30.607 C 3.2045749,-31.507146 2.8462628,-32.373247 2.2,-33 c -0.6266844,-0.64564 -1.49234893,-1.003559 -2.392,-0.989 -0.8903219,-0.01317 -1.7458733,0.34521 -2.361,0.989 -0.63975,0.630212 -0.9932247,1.495105 -0.978,2.393 v 21.29 c -0.016817,0.8949668 0.3371409,1.7570616 0.978,2.382 0.6187138,0.6378682 1.4734661,0.9917834 2.362,0.978 0.89729305,0.015145 1.7615365,-0.3383595 2.391,-0.978 0.647411,-0.6214226 1.0062278,-1.4847577 0.99,-2.382 v -5.120018 L 9.253,-14.657 v 5.4 C 9.2999766,-6.7845067 8.3129931,-4.4045826 6.53,-2.691 4.8139213,-0.93727083 2.4534124,0.03549018 0,0"
           sodipodi:nodetypes="ccccccccccccccccccccccccc"
           style="stroke-width:0.339543" />
      </g>
      <g
         id="Group_5-9"
         data-name="Group 5"
         transform="translate(43.397465,-31.4222)"
         style="stroke-width:0.339543">
        <path
           id="Path_5-3"
           data-name="Path 5"
           class="cls-2"
           d="m 0,0 c -2.4698705,0.04645126 -4.8489452,-0.93080443 -6.573,-2.7 -1.7661495,-1.7174539 -2.7433779,-4.0888617 -2.7,-6.552 V -30.5 c -0.040411,-2.469877 0.9452029,-4.845924 2.722,-6.562 1.7162241,-1.769322 4.0863137,-2.752307 6.551,-2.717 2.4710651,-0.04561 4.8492286,0.941243 6.562,2.723 1.7572402,1.724414 2.7299918,4.094298 2.691,6.556 v 16.193028 L 3.19,-13.207063 V -30.607 C 3.2045749,-31.507146 2.8462628,-32.373247 2.2,-33 c -0.6266844,-0.64564 -1.49234893,-1.003559 -2.392,-0.989 -0.8903219,-0.01317 -1.7458733,0.34521 -2.361,0.989 -0.63975,0.630212 -0.9932247,1.495105 -0.978,2.393 v 21.29 c -0.016817,0.8949668 0.3371409,1.7570616 0.978,2.382 0.6187138,0.6378682 1.4734661,0.9917834 2.362,0.978 0.89729305,0.015145 1.7615365,-0.3383595 2.391,-0.978 0.647411,-0.6214226 1.0062278,-1.4847577 0.99,-2.382 v -5.120018 L 9.253,-14.657 v 5.4 C 9.2999766,-6.7845067 8.3129931,-4.4045826 6.53,-2.691 4.8139213,-0.93727083 2.4534124,0.03549018 0,0"
           sodipodi:nodetypes="ccccccccccccccccccccccccc"
           style="fill:#ffffff;stroke-width:0.339543" />
      </g>
      <g
         id="Group_5-2"
         data-name="Group 5"
         transform="translate(253.70193,-76.842987)"
         style="stroke-width:0.339543">
        <path
           id="Path_5-4"
           data-name="Path 5"
           class="cls-2"
           d="m 0,0 c -2.4698705,0.04645126 -4.8489452,-0.93080443 -6.573,-2.7 -1.7661495,-1.7174539 -2.7433779,-4.0888617 -2.7,-6.552 V -30.5 c -0.040411,-2.469877 0.9452029,-4.845924 2.722,-6.562 1.7162241,-1.769322 4.0863137,-2.752307 6.551,-2.717 2.4710651,-0.04561 4.8492286,0.941243 6.562,2.723 1.7572402,1.724414 2.7299918,4.094298 2.691,6.556 v 16.193028 L 3.19,-13.207063 V -30.607 C 3.2045749,-31.507146 2.8462628,-32.373247 2.2,-33 c -0.6266844,-0.64564 -1.49234893,-1.003559 -2.392,-0.989 -0.8903219,-0.01317 -1.7458733,0.34521 -2.361,0.989 -0.63975,0.630212 -0.9932247,1.495105 -0.978,2.393 v 21.29 c -0.016817,0.8949668 0.3371409,1.7570616 0.978,2.382 0.6187138,0.6378682 1.4734661,0.9917834 2.362,0.978 0.89729305,0.015145 1.7615365,-0.3383595 2.391,-0.978 0.647411,-0.6214226 1.0062278,-1.4847577 0.99,-2.382 v -5.120018 L 9.253,-14.657 v 5.4 C 9.2999766,-6.7845067 8.3129931,-4.4045826 6.53,-2.691 4.8139213,-0.93727083 2.4534124,0.03549018 0,0"
           sodipodi:nodetypes="ccccccccccccccccccccccccc"
           style="fill:#ffffff;stroke-width:0.339543" />
      </g>
      <path
         id="Path_6"
         data-name="Path 6"
         class="cls-2"
         d="M 6.6376869,-76.540145 H 0.78668693 V -115.34015 H 6.6376869 Z m 11.2465771,-0.09063 -6.070982,-10e-7 -5.0595817,-11.302276 1.0113996,-11.219074 z"
         inkscape:transform-center-x="-3.2997275"
         inkscape:transform-center-y="0.21998183"
         sodipodi:nodetypes="cccccccccc"
         style="stroke-width:0.339543" />
      <path
         id="Path_6-3"
         data-name="Path 6"
         class="cls-2"
         d="M 5.9682062,-84.990088 H 0.81419102 L 11.927247,-114.77085 h 5.154016 z"
         inkscape:transform-center-x="-2.8436492"
         inkscape:transform-center-y="0.16884365"
         style="fill:#ffffff;stroke-width:0.279193" />
      <g
         id="Group_6"
         data-name="Group 6"
         transform="translate(211.57079,-106.52464)"
         style="stroke-width:0.339543">
        <path
           id="Path_7"
           data-name="Path 7"
           class="cls-2"
           d="M 0,0 -2.169,15.294 H 2.17 Z m -3.063,21 -1.425,8.912 h -6.083 L -4,-8.892 h 8.063 l 6.488,38.8 H 4.425 L 3.042,21 Z"
           style="stroke-width:0.339543" />
      </g>
      <g
         id="Group_6-0"
         data-name="Group 6"
         transform="translate(127.08382,-62.443868)"
         style="stroke-width:0.339543">
        <path
           id="Path_7-6"
           data-name="Path 7"
           class="cls-2"
           d="M 0,0 -2.169,15.294 H 2.17 Z m -3.063,21 -1.425,8.912 h -6.083 L -4,-8.892 h 8.063 l 6.488,38.8 H 4.425 L 3.042,21 Z"
           style="fill:#ffffff;stroke-width:0.339543" />
      </g>
      <g
         id="Group_7"
         data-name="Group 7"
         transform="translate(130.52616,-81.286089)"
         style="stroke-width:0.339543">
        <path
           id="Path_8"
           data-name="Path 8"
           class="cls-2"
           d="m 1.2444051,0 h 3.521 a 3.108,3.108 0 0 0 2.353,-1.011 3.341,3.341 0 0 0 0.954,-2.371 v -20.294 a 3.26,3.26 0 0 0 -0.975,-2.372 3.164,3.164 0 0 0 -2.332,-0.989 h -3.521 z M 13.773405,-3.489 a 8.966,8.966 0 0 1 -2.7,6.552 8.811,8.811 0 0 1 -6.4889999,2.722 h -9.19 v -38.8 h 9.19 a 8.794,8.794 0 0 1 6.5089999,2.722 8.981,8.981 0 0 1 2.68,6.531 z"
           style="stroke-width:0.339543" />
      </g>
      <g
         id="Group_7-0"
         data-name="Group 7"
         transform="translate(230.13043,-81.872843)"
         style="stroke-width:0.339543">
        <path
           id="Path_8-4"
           data-name="Path 8"
           class="cls-2"
           d="M 0,0 H 3.521 A 3.108,3.108 0 0 0 5.874,-1.011 3.341,3.341 0 0 0 6.828,-3.382 V -23.676 A 3.26,3.26 0 0 0 5.853,-26.048 3.164,3.164 0 0 0 3.521,-27.037 H 0 Z M 12.529,-3.489 A 8.966,8.966 0 0 1 9.829,3.063 8.811,8.811 0 0 1 3.34,5.785 h -9.19 v -38.8 h 9.19 a 8.794,8.794 0 0 1 6.509,2.722 8.981,8.981 0 0 1 2.68,6.531 z"
           style="fill:#ffffff;stroke-width:0.339543" />
      </g>
      <g
         id="Group_7-7"
         data-name="Group 7"
         transform="matrix(0.88031497,0,0,0.60881573,79.706537,-93.733122)"
         style="stroke-width:0.339543">
        <path
           id="Path_8-9"
           data-name="Path 8"
           class="cls-2"
           d="m 30.13751,-0.8799273 h 3.521 a 3.108,3.108 0 0 0 2.353,-1.011 3.341,3.341 0 0 0 0.954,-2.371 V -24.555927 a 3.26,3.26 0 0 0 -0.975,-2.372 3.164,3.164 0 0 0 -2.332,-0.989 h -3.521 z m 12.529,-3.489 a 8.966,8.966 0 0 1 -2.7,6.552 8.811,8.811 0 0 1 -6.489,2.722 h -9.19 V -33.894927 h 9.19 a 8.794,8.794 0 0 1 6.509,2.722 8.981,8.981 0 0 1 2.68,6.531 z"
           style="fill:#ffffff;stroke-width:0.339543" />
      </g>
      <g
         id="Group_7-7-0"
         data-name="Group 7"
         transform="matrix(0.74490681,0,0,0.40438953,116.44684,-13.338879)"
         style="stroke-width:0.339543">
        <path
           id="Path_8-9-5"
           data-name="Path 8"
           class="cls-2"
           d="m 30.13751,-0.8799273 h 3.521 a 3.108,3.108 0 0 0 2.353,-1.011 3.341,3.341 0 0 0 0.954,-2.371 V -24.555927 a 3.26,3.26 0 0 0 -0.975,-2.372 3.164,3.164 0 0 0 -2.332,-0.989 h -3.521 z m 12.529,-3.489 a 8.966,8.966 0 0 1 -2.7,6.552 8.811,8.811 0 0 1 -6.489,2.722 h -9.19 V -33.894927 h 9.19 a 8.794,8.794 0 0 1 6.509,2.722 8.981,8.981 0 0 1 2.68,6.531 z"
           style="fill:#ffffff;stroke-width:0.339543" />
      </g>
      <g
         id="Group_7-7-8"
         data-name="Group 7"
         transform="matrix(0.88031497,0,0,0.60881573,120.62453,-50.575435)"
         style="stroke-width:0.339543">
        <path
           id="Path_8-9-7"
           data-name="Path 8"
           class="cls-2"
           d="m 30.13751,-0.8799273 h 3.521 a 3.108,3.108 0 0 0 2.353,-1.011 3.341,3.341 0 0 0 0.954,-2.371 V -24.555927 a 3.26,3.26 0 0 0 -0.975,-2.372 3.164,3.164 0 0 0 -2.332,-0.989 h -3.521 z m 12.529,-3.489 a 8.966,8.966 0 0 1 -2.7,6.552 8.811,8.811 0 0 1 -6.489,2.722 h -9.19 V -33.894927 h 9.19 a 8.794,8.794 0 0 1 6.509,2.722 8.981,8.981 0 0 1 2.68,6.531 z"
           style="fill:#ffffff;stroke-width:0.339543" />
      </g>
      <g
         id="Group_8"
         data-name="Group 8"
         transform="matrix(1,0,0,0.97594578,146.31655,-75.812189)"
         style="stroke-width:0.339543">
        <path
           id="Path_9"
           data-name="Path 9"
           class="cls-2"
           d="m 0,0 v -38.8 h 16.655 v 5.849 H 5.85 v 10.637 h 7.891 v 5.849 H 5.85 V -5.849 H 16.655 V 0 Z"
           style="stroke-width:0.339543" />
      </g>
      <g
         id="Group_8-0"
         data-name="Group 8"
         transform="matrix(1,0,0,0.97594578,161.6783,-33.00052)"
         style="stroke-width:0.339543">
        <path
           id="Path_9-8"
           data-name="Path 9"
           class="cls-2"
           d="m 0,0 v -38.8 h 16.655 v 5.849 H 5.85 v 10.637 h 7.891 v 5.849 H 5.85 V -5.849 H 16.655 V 0 Z"
           style="fill:#ffffff;stroke-width:0.339543" />
      </g>
      <g
         id="Group_8-0-8"
         data-name="Group 8"
         transform="matrix(0.66377526,0,0,0.68501631,105.99116,0.03787217)"
         style="stroke-width:0.339543">
        <path
           id="Path_9-8-5"
           data-name="Path 9"
           class="cls-2"
           d="m 0,0 v -38.8 h 16.655 v 5.849 H 5.85 v 10.637 h 7.891 v 5.849 H 5.85 V -5.849 H 16.655 V 0 Z"
           style="fill:#ffffff;stroke-width:0.339543" />
      </g>
      <g
         id="Group_8-0-8-6"
         data-name="Group 8"
         transform="matrix(0.66377526,0,0,0.68501631,120.61293,-0.11466916)"
         style="stroke-width:0.339543">
        <path
           id="Path_9-8-5-4"
           data-name="Path 9"
           class="cls-2"
           d="m 0,0 v -38.8 h 16.655 v 5.849 H 5.85 v 10.637 h 7.891 v 5.849 H 5.85 V -5.849 H 16.655 V 0 Z"
           style="fill:#ffffff;stroke-width:0.339543" />
      </g>
      <g
         id="Group_8-0-0"
         data-name="Group 8"
         transform="matrix(0.71981272,0,0,0.66142744,24.793735,-1.4529019)"
         style="stroke-width:0.339543">
        <path
           id="Path_9-8-2"
           data-name="Path 9"
           class="cls-2"
           d="m 0,0 v -38.8 h 16.655 v 5.849 H 5.85 v 10.637 h 7.891 v 5.849 H 5.85 V -5.849 H 16.655 V 0 Z"
           style="fill:#ffffff;stroke-width:0.339543" />
      </g>
      <path
         id="Path_11-1"
         data-name="Path 11"
         class="cls-2"
         d="m 69.803701,-76.199943 h -6.392218 v -38.781747 h 6.392218 z"
         style="fill:#ffffff;stroke-width:0.229841" />
      <path
         id="Path_11-1-1"
         data-name="Path 11"
         class="cls-2"
         d="M 82.671432,-0.41985053 H 76.279214 V -27.608453 h 6.392218 z"
         style="fill:#ffffff;stroke-width:0.192446" />
      <path
         id="Path_11-1-0"
         data-name="Path 11"
         class="cls-2"
         d="M 47.205885,-0.72493383 H 40.813667 V -27.608447 h 6.392218 z"
         style="fill:#ffffff;stroke-width:0.191363" />
      <path
         id="Path_11-1-0-2"
         data-name="Path 11"
         class="cls-2"
         d="M 93.248875,-0.2673118 H 86.856657 V -27.150825 h 6.392218 z"
         style="fill:#ffffff;stroke-width:0.191363" />
      <path
         id="Path_11-1-0-1"
         data-name="Path 11"
         class="cls-2"
         d="M 57.005576,0.0377712 H 50.613358 V -26.845742 h 6.392218 z"
         style="fill:#ffffff;stroke-width:0.191363" />
      <path
         id="Path_11-1-0-1-2"
         data-name="Path 11"
         class="cls-2"
         d="M 102.89301,0.03777107 H 96.500797 V -26.845742 h 6.392213 z"
         style="fill:#ffffff;stroke-width:0.191363" />
      <path
         id="Path_11-1-0-5"
         data-name="Path 11"
         class="cls-2"
         d="M 56.383888,-0.13579855 50.635858,0.03081962 41.902009,-25.451841 46.872286,-27.90658 Z"
         style="fill:#ffffff;stroke-width:0.191363"
         sodipodi:nodetypes="ccccc" />
      <path
         id="Path_11-1-0-5-7"
         data-name="Path 11"
         class="cls-2"
         d="m 102.58243,0.09301321 -5.748032,0.1666182 -8.733849,-25.48266041 4.970277,-2.454739 z"
         style="fill:#ffffff;stroke-width:0.191363"
         sodipodi:nodetypes="ccccc" />
      <path
         id="Path_11-1-50"
         data-name="Path 11"
         class="cls-2"
         d="M 65.24976,-32.854096 H 58.857542 V -71.63584 h 6.392218 z"
         style="fill:#ffffff;stroke-width:0.229841" />
      <path
         id="Path_11-1-9"
         data-name="Path 11"
         class="cls-2"
         d="m 170.7131,-76.097173 h -6.39221 v -37.226237 h 6.39221 z"
         style="fill:#ffffff;stroke-width:0.225185" />
      <path
         id="Path_11-1-7"
         data-name="Path 11"
         class="cls-2"
         d="m 118.3052,-75.614429 -5.56242,-0.371034 -5.95951,-15.319285 5.34243,-0.884398 z"
         style="fill:#ffffff;stroke-width:0.132275"
         sodipodi:nodetypes="ccccc" />
      <path
         id="Path_11-1-7-7"
         data-name="Path 11"
         class="cls-2"
         d="m 147.14544,0.37486348 -4.21071,-0.30956901 -4.51131,-12.78151247 4.04418,-0.73789 z"
         style="fill:#ffffff;stroke-width:0.105122"
         sodipodi:nodetypes="ccccc" />
      <path
         id="Path_11-1-7-5"
         data-name="Path 11"
         class="cls-2"
         d="m 158.03398,-31.513559 -5.56242,-0.371034 -5.95951,-15.319285 5.34243,-0.884398 z"
         style="fill:#ffffff;stroke-width:0.132275"
         sodipodi:nodetypes="ccccc" />
      <path
         id="Path_11-1-4"
         data-name="Path 11"
         class="cls-2"
         d="m 107.09386,-75.357758 h -6.39222 v -38.781752 h 6.39222 z"
         style="fill:#ffffff;stroke-width:0.229841" />
      <path
         id="Path_11-1-4-0"
         data-name="Path 11"
         class="cls-2"
         d="m 140.53627,0.19031746 h -6.39222 V -26.69321 h 6.39222 z"
         style="fill:#ffffff;stroke-width:0.191363" />
      <path
         id="Path_11-1-4-2"
         data-name="Path 11"
         class="cls-2"
         d="m 148.3138,-31.920789 h -6.39222 v -38.78175 h 6.39222 z"
         style="fill:#ffffff;stroke-width:0.229841" />
      <path
         id="Path_11-1-5"
         data-name="Path 11"
         class="cls-2"
         d="m 63.803702,-76.059079 -0.0065,-6.39219 13.495927,-0.113972 0.0065,6.39219 z"
         style="fill:#ffffff;stroke-width:0.135587" />
      <path
         id="Path_11-1-5-6"
         data-name="Path 11"
         class="cls-2"
         d="m 63.397571,-65.169155 -0.0065,-6.39219 13.495927,-0.113972 0.0065,6.39219 z"
         style="fill:#ffffff;stroke-width:0.135587" />
      <path
         id="Path_11-1-5-6-7"
         data-name="Path 11"
         class="cls-2"
         d="m 59.353254,-52.414002 -0.0065,-6.39219 13.495927,-0.113972 0.0065,6.39219 z"
         style="fill:#ffffff;stroke-width:0.135587" />
      <path
         id="Path_11-1-5-7"
         data-name="Path 11"
         class="cls-2"
         d="m 164.5055,-76.0577 -0.006,-6.39219 13.49592,-0.113972 0.007,6.39219 z"
         style="fill:#ffffff;stroke-width:0.135587" />
      <path
         id="Path_11-9"
         data-name="Path 11"
         class="cls-2"
         d="m 53.267322,-76.199943 h -9.032 v -30.642417 h 9.032 z"
         style="fill:#ffffff;stroke-width:0.242852" />
      <path
         id="Path_11-9-2"
         data-name="Path 11"
         class="cls-2"
         d="m 53.59934,-92.524415 -6.282287,5.963137 -10.528655,-28.776802 9.362032,0.41633 z"
         style="fill:#ffffff;stroke-width:0.242852"
         sodipodi:nodetypes="ccccc" />
      <path
         id="Path_11-9-2-1"
         data-name="Path 11"
         class="cls-2"
         d="m 92.391761,-33.620743 -5.974416,0.275141 -8.814367,-37.332087 7.976011,-0.07085 z"
         style="fill:#ffffff;stroke-width:0.257957"
         sodipodi:nodetypes="ccccc" />
      <path
         id="Path_11-9-2-1-2"
         data-name="Path 11"
         class="cls-2"
         d="m 112.60468,-34.441201 -6.49612,-7.023975 4.29378,-28.83921 7.0887,0.0031 z"
         style="fill:#ffffff;stroke-width:0.257957"
         sodipodi:nodetypes="ccccc" />
      <path
         id="Path_11-9-2-2"
         data-name="Path 11"
         class="cls-2"
         d="m 44.396642,-92.815819 6.282287,6.430501 10.528655,-27.993542 -9.362032,-0.28015 z"
         style="fill:#ffffff;stroke-width:0.242852"
         sodipodi:nodetypes="ccccc"
         inkscape:transform-center-x="-6.3794732"
         inkscape:transform-center-y="-0.53170818" />
      <path
         id="Path_11-9-2-2-8"
         data-name="Path 11"
         class="cls-2"
         d="m 86.002713,-39.872105 6.282287,6.430501 10.3731,-27.83799 -9.206477,-0.4357 z"
         style="fill:#ffffff;stroke-width:0.242852"
         sodipodi:nodetypes="ccccc"
         inkscape:transform-center-x="-6.3794732"
         inkscape:transform-center-y="-0.53170818" />
      <path
         id="Path_11-9-2-2-8-0"
         data-name="Path 11"
         class="cls-2"
         d="m 106.79715,-34.742972 6.31407,0.125341 -10.14388,-26.963674 -7.280839,6.131614 z"
         style="fill:#ffffff;stroke-width:0.242852"
         sodipodi:nodetypes="ccccc"
         inkscape:transform-center-x="-2.9299811"
         inkscape:transform-center-y="-7.1174389" />
      <g
         id="Group_13"
         data-name="Group 13"
         transform="matrix(0.60424587,0,0,0.65547091,29.991158,-41.93467)"
         style="stroke-width:0.339543">
        <path
           id="Path_15"
           data-name="Path 15"
           class="cls-2"
           d="m 0,0 a 16.8,16.8 0 0 1 -3.252,10.706 11.548,11.548 0 0 1 -6.208,4.238 16.61,16.61 0 0 1 -5.025,0.69 14.192,14.192 0 0 1 -8.8,-2.628 15.04,15.04 0 0 1 -4.6,-5.861 23.2,23.2 0 0 1 -1.97,-8.524 l 8.572,-0.592 q 0.591,5.223 2.792,7.555 a 4.571,4.571 0 0 0 3.712,1.674 5.624,5.624 0 0 0 4.728,-2.889 A 7.259,7.259 0 0 0 -9.13,0.4 q 0,-3.778 -3.383,-7.457 -2.7,-2.528 -8.047,-7.586 a 33.187,33.187 0 0 1 -6.34,-7.788 18.058,18.058 0 0 1 -2,-8.408 q 0,-8.177 5.485,-12.382 a 13.658,13.658 0 0 1 8.406,-2.528 15.233,15.233 0 0 1 8.277,2.168 12.427,12.427 0 0 1 4.3,4.679 17.654,17.654 0 0 1 2,6.915 l -8.668,1.576 a 10.126,10.126 0 0 0 -2.1,-5.715 4.379,4.379 0 0 0 -3.579,-1.511 4.16,4.16 0 0 0 -3.777,2.2 8.5,8.5 0 0 0 -1.05,4.4 q 0,4.107 3.546,8.376 a 31.6,31.6 0 0 0 4.006,3.808 q 3.154,2.628 4.171,3.679 a 31.86,31.86 0 0 1 5.157,6.6 23.589,23.589 0 0 1 1.379,2.827 A 16.785,16.785 0 0 1 0,0"
           style="stroke-width:0.339543" />
      </g>
      <g
         id="Group_14"
         data-name="Group 14"
         transform="translate(260.198,-18.718)"
         style="stroke-width:0.339543">
        <path
           id="Path_16"
           data-name="Path 16"
           class="cls-2"
           d="M 0,0 A 3.52,3.52 0 0 1 -1.463,2.834 L -13.954,-18.8 -6.7,-24.934 -5.468,-22.8 a 40.965,40.965 0 0 1 5.475,20.635 z m -36.973,-1.619 -2.4,1.87 A 0.018,0.018 0 0 0 -39.4,0.262 l -2.039,1.589 a 27.163,27.163 0 0 1 -3.574,2.37 28.52,28.52 0 0 1 -2.666,1.328 0.482,0.482 0 0 0 -0.076,0.036 2.353,2.353 0 0 1 -2.534,-0.557 2.355,2.355 0 0 1 -0.476,-2.55 28.5,28.5 0 0 1 1.343,-2.688 26.5,26.5 0 0 1 2.375,-3.59 l 1.576,-2.026 a 0.02,0.02 0 0 1 0.01,-0.017 l 1.887,-2.43 31.246,-35.718 A 15.189,15.189 0 0 1 -1.2,-48.854 15.075,15.075 0 0 1 0.965,-48.7 l 1.339,0.188 a 1.181,1.181 0 0 1 1,0.99 l 0.19,1.35 A 15.173,15.173 0 0 1 -1.217,-32.9 Z m 0.493,14.909 0.008,1.727 a 1.189,1.189 0 0 1 -0.438,0.922 L -42.842,5.656 c 0.228,-0.136 0.441,-0.285 0.66,-0.427 0.176,-0.115 0.353,-0.224 0.522,-0.339 0.567,-0.38 1.118,-0.771 1.637,-1.18 l 0.034,-0.026 0.96,-0.746 a 22.279,22.279 0 0 1 2.549,10.352 m -23.765,-22.028 1.753,0.007 a 22.249,22.249 0 0 1 10.344,2.551 l -0.735,0.946 c -0.425,0.537 -0.826,1.1 -1.219,1.684 -0.118,0.169 -0.221,0.34 -0.334,0.511 -0.143,0.225 -0.294,0.439 -0.433,0.669 L -61.153,-8.3 a 1.178,1.178 0 0 1 0.908,-0.434 m 15.037,-36.474 2.168,-0.009 a 41.232,41.232 0 0 1 20.63,5.483 l 2.13,1.224 -6.137,7.256 -21.629,-12.495 a 3.524,3.524 0 0 1 2.838,-1.463 m 40.308,18.723 5.249,-4.665 0.019,-0.017 A 17.511,17.511 0 0 0 5.8,-46.5 L 5.609,-47.853 A 3.53,3.53 0 0 0 2.64,-50.823 L 1.3,-51.014 a 17.532,17.532 0 0 0 -15.36,5.455 l -4.663,5.245 -2.521,-1.451 a 43.721,43.721 0 0 0 -21.8,-5.791 l -2.171,0.008 a 5.859,5.859 0 0 0 -5.04,2.922 l -0.409,0.71 a 1.168,1.168 0 0 0 0.427,1.594 l 22.261,12.853 -17.397,19.71 -1.332,1.713 a 24.591,24.591 0 0 0 -11.787,-3.02 l -1.759,-0.01 a 3.556,3.556 0 0 0 -3.025,1.753 l -0.5,0.851 a 1.161,1.161 0 0 0 -0.119,0.887 1.183,1.183 0 0 0 0.545,0.711 l 11.339,6.544 c -0.321,0.621 -0.626,1.242 -0.9,1.884 a 4.7,4.7 0 0 0 0.4,4.405 4.7,4.7 0 0 0 3.88,2.127 4.729,4.729 0 0 0 1.87,-0.39 0.652,0.652 0 0 0 0.089,-0.04 c 0.583,-0.252 1.185,-0.545 1.795,-0.862 l 6.544,11.334 a 1.178,1.178 0 0 0 0.71,0.55 1.174,1.174 0 0 0 0.889,-0.115 l 0.86,-0.5 h 0.007 a 3.57,3.57 0 0 0 1.743,-3.037 l -0.008,-1.737 A 24.583,24.583 0 0 0 -37.169,1.5 l 1.69,-1.312 19.724,-17.42 12.86,22.261 a 1.171,1.171 0 0 0 1.6,0.429 L -0.586,5.051 A 5.864,5.864 0 0 0 2.332,0.006 L 2.339,-2.16 A 43.3,43.3 0 0 0 -3.45,-23.965 Z"
           style="stroke-width:0.339543" />
      </g>
      <g
         id="Group_15"
         data-name="Group 15"
         transform="translate(252.709,-61.24)"
         style="stroke-width:0.339543">
        <path
           id="Path_17"
           data-name="Path 17"
           class="cls-2"
           d="m 0,0 a 3.5,3.5 0 0 1 4.8,4.8 1.1704807,1.1704807 0 0 0 2.01,1.2 5.843,5.843 0 0 0 -8,-8.01 1.172,1.172 0 0 0 -0.583,1.02 1.172,1.172 0 0 0 0.6,1.013 A 1.176,1.176 0 0 0 0,0"
           style="stroke-width:0.339543" />
      </g>
    </g>
  </g>
</svg>
